<svg id="Layer_1" data-name="Layer 1" xmlns="http://www.w3.org/2000/svg" xmlns:xlink="http://www.w3.org/1999/xlink" viewBox="0 0 798.05 608.24"><defs><style>.cls-1,.cls-11,.cls-13,.cls-17,.cls-4{fill:none;}.cls-2{clip-path:url(#clip-path);}.cls-3{fill:#f90;opacity:0.53;}.cls-12,.cls-14,.cls-15,.cls-16,.cls-19,.cls-3,.cls-5{fill-rule:evenodd;}.cls-17,.cls-4{stroke:#000;}.cls-11,.cls-17,.cls-4{stroke-linejoin:round;}.cls-4{stroke-width:2px;}.cls-5{fill:#6aa84f;opacity:0.59;}.cls-20,.cls-6{font-size:22.24px;}.cls-10,.cls-22,.cls-24,.cls-6,.cls-7,.cls-9{font-family:font000000002626679d;}.cls-7{font-size:14.83px;}.cls-15,.cls-21,.cls-8{opacity:0;}.cls-9{font-size:24.02px;}.cls-10{font-size:16.01px;}.cls-11,.cls-13{stroke:#666;stroke-width:2.67px;}.cls-12{fill:#666;}.cls-13{stroke-miterlimit:10;}.cls-14{fill:#4a86e8;opacity:0.47;}.cls-16{fill:#efefef;}.cls-17{stroke-width:0.67px;}.cls-18{font-size:26.69px;}.cls-18,.cls-20{font-family:Arial-BoldMT, Arial;font-weight:700;}.cls-21{fill:#010000;}.cls-22{font-size:17.79px;}.cls-23{letter-spacing:0em;}.cls-24{font-size:15.42px;}</style><clipPath id="clip-path" transform="translate(-131.22 -88.53)"><rect class="cls-1" x="131.23" y="68.16" width="795.33" height="633.42"/></clipPath></defs><g class="cls-2"><path class="cls-3" d="M143,493.86h0c0-15,16-27.19,35.81-27.19s35.81,12.18,35.81,27.19-16,27.2-35.81,27.2S143,508.88,143,493.86Z" transform="translate(-131.22 -88.53)"/></g><g class="cls-2"><path class="cls-4" d="M143,493.85h0c0-15,16-27.19,35.81-27.19s35.81,12.17,35.81,27.19S198.61,521,178.83,521,143,508.87,143,493.85Z" transform="translate(-131.22 -88.53)"/></g><g class="cls-2"><path class="cls-5" d="M141,393.39h0a10.33,10.33,0,0,1,10.33-10.33h54.51a10.33,10.33,0,0,1,10.33,10.33v28.93a10.33,10.33,0,0,1-10.33,10.33H151.32A10.33,10.33,0,0,1,141,422.32Z" transform="translate(-131.22 -88.53)"/></g><text class="cls-6" transform="translate(29.69 413.34)">h</text><text class="cls-7" transform="translate(43.27 405)">&lt;t&gt;</text><g class="cls-2"><path class="cls-4" d="M141,393.38h0a10.33,10.33,0,0,1,10.33-10.33h54.51a10.33,10.33,0,0,1,10.33,10.33v28.93a10.33,10.33,0,0,1-10.33,10.33H151.32A10.33,10.33,0,0,1,141,422.31Z" transform="translate(-131.22 -88.53)"/></g><g class="cls-2"><line class="cls-8" x1="47.61" y1="378.14" x2="47.35" y2="344.11"/></g><text class="cls-9" transform="translate(28.65 328.03)">y</text><text class="cls-10" transform="translate(42.01 319.03)">&lt;t&gt;</text><g class="cls-2"><line class="cls-11" x1="47.6" y1="378.13" x2="47.42" y2="353.25"/><polygon class="cls-12" points="47.42 353.25 50.44 356.23 47.38 348 44.44 356.27 47.42 353.25"/><polygon class="cls-13" points="47.42 353.25 50.44 356.23 47.38 348 44.44 356.27 47.42 353.25"/></g><g class="cls-2"><path class="cls-14" d="M143.27,651.81h0a11.33,11.33,0,0,1,11.33-11.33h48a11.34,11.34,0,0,1,11.33,11.33v31.73a11.33,11.33,0,0,1-11.33,11.33h-48a11.34,11.34,0,0,1-11.33-11.33Z" transform="translate(-131.22 -88.53)"/></g><g class="cls-2"><path class="cls-4" d="M143.27,651.8h0a11.33,11.33,0,0,1,11.33-11.33h48a11.32,11.32,0,0,1,11.33,11.33v31.72a11.33,11.33,0,0,1-11.33,11.33h-48a11.33,11.33,0,0,1-11.33-11.33Z" transform="translate(-131.22 -88.53)"/></g><g class="cls-2"><line class="cls-8" x1="47.35" y1="551.95" x2="48.38" y2="516.98"/></g><text class="cls-9" transform="translate(28.66 587.85)">x</text><text class="cls-10" transform="translate(42.01 578.85)">&lt;t&gt;</text><g class="cls-2"><line class="cls-11" x1="47.35" y1="551.93" x2="48.11" y2="526.11"/><polygon class="cls-12" points="48.11 526.11 51.02 529.19 48.27 520.86 45.02 529.02 48.11 526.11"/><polygon class="cls-13" points="48.11 526.11 51.02 529.19 48.27 520.86 45.02 529.02 48.11 526.11"/></g><g class="cls-2"><path class="cls-15" d="M204.15,474.64c0-8.74,13.69-20.2,27.38-17.48s27.38,19.62,27.38,36.49-13.68,33.71-27.36,36.48-27.36-8.52-27.36-17" transform="translate(-131.22 -88.53)"/></g><g class="cls-2"><path class="cls-11" d="M204.15,474.62c0-8.73,13.69-20.19,27.38-17.47s27.37,19.62,27.38,36.49-13.68,33.71-27.36,36.48c-6.84,1.39-13.68-.74-18.81-4.28a26.38,26.38,0,0,1-3.5-2.89l-.76-.78-.35-.4-.18-.2-.09-.11" transform="translate(-131.22 -88.53)"/><polygon class="cls-12" points="76.63 432.93 80.59 434.47 74.53 428.12 75.09 436.88 76.63 432.93"/><polygon class="cls-13" points="76.63 432.93 80.59 434.47 74.53 428.12 75.09 436.88 76.63 432.93"/></g><g class="cls-2"><path class="cls-3" d="M510.84,495.14h0c0-15.73,21-28.47,46.88-28.47s46.88,12.74,46.88,28.47-21,28.46-46.88,28.46S510.84,510.86,510.84,495.14Z" transform="translate(-131.22 -88.53)"/></g><g class="cls-2"><path class="cls-4" d="M510.82,495.12h0c0-15.72,21-28.46,46.89-28.46s46.88,12.74,46.88,28.46-21,28.47-46.88,28.47S510.82,510.84,510.82,495.12Z" transform="translate(-131.22 -88.53)"/></g><g class="cls-2"><path class="cls-5" d="M517.08,393.39h0a10.33,10.33,0,0,1,10.34-10.33H588a10.33,10.33,0,0,1,10.33,10.33v28.93A10.34,10.34,0,0,1,588,432.65h-60.6a10.34,10.34,0,0,1-10.34-10.33Z" transform="translate(-131.22 -88.53)"/></g><text class="cls-9" transform="translate(400.02 415.32)">h</text><text class="cls-10" transform="translate(414.69 406.31)">&lt;t-1&gt;</text><g class="cls-2"><path class="cls-4" d="M517.07,393.38h0a10.33,10.33,0,0,1,10.34-10.33H588a10.33,10.33,0,0,1,10.34,10.33v28.93A10.34,10.34,0,0,1,588,432.64H527.41a10.34,10.34,0,0,1-10.34-10.33Z" transform="translate(-131.22 -88.53)"/></g><g class="cls-2"><line class="cls-8" x1="426.5" y1="378.14" x2="426.5" y2="344.11"/></g><text class="cls-9" transform="translate(400.68 328.03)">y</text><text class="cls-10" transform="translate(414.03 319.03)">&lt;t-1&gt;</text><g class="cls-2"><line class="cls-11" x1="426.48" y1="378.13" x2="426.48" y2="353.25"/><polygon class="cls-12" points="426.48 353.25 429.48 356.25 426.48 348 423.48 356.25 426.48 353.25"/><polygon class="cls-13" points="426.48 353.25 429.48 356.25 426.48 348 423.48 356.25 426.48 353.25"/></g><g class="cls-2"><path class="cls-14" d="M520.33,651.81h0a11.33,11.33,0,0,1,11.33-11.33h53.69a11.34,11.34,0,0,1,11.33,11.33v31.73a11.34,11.34,0,0,1-11.33,11.33H531.66a11.33,11.33,0,0,1-11.33-11.33Z" transform="translate(-131.22 -88.53)"/></g><g class="cls-2"><path class="cls-4" d="M520.32,651.8h0a11.34,11.34,0,0,1,11.33-11.34h53.68a11.32,11.32,0,0,1,11.33,11.34v31.72a11.33,11.33,0,0,1-11.33,11.33H531.65a11.33,11.33,0,0,1-11.33-11.33Z" transform="translate(-131.22 -88.53)"/></g><g class="cls-2"><line class="cls-8" x1="427.28" y1="551.95" x2="427.28" y2="519.52"/></g><text class="cls-9" transform="translate(401.46 587.85)">x</text><text class="cls-10" transform="translate(414.82 578.85)">&lt;t-1&gt;</text><g class="cls-2"><line class="cls-11" x1="427.27" y1="551.93" x2="427.27" y2="528.65"/><polygon class="cls-12" points="427.27 528.65 430.27 531.65 427.27 523.41 424.27 531.65 427.27 528.65"/><polygon class="cls-13" points="427.27 528.65 430.27 531.65 427.27 523.41 424.27 531.65 427.27 528.65"/></g><g class="cls-2"><path class="cls-3" d="M641.9,494.79h0c0-15.73,18.47-28.47,41.25-28.47s41.26,12.74,41.26,28.47-18.47,28.46-41.26,28.46S641.9,510.51,641.9,494.79Z" transform="translate(-131.22 -88.53)"/></g><g class="cls-2"><path class="cls-4" d="M641.89,494.77h0c0-15.72,18.46-28.46,41.25-28.46s41.25,12.74,41.25,28.46-18.47,28.47-41.25,28.47S641.89,510.49,641.89,494.77Z" transform="translate(-131.22 -88.53)"/></g><g class="cls-2"><path class="cls-5" d="M644.16,394.31h0A10.32,10.32,0,0,1,654.49,384h57.32a10.31,10.31,0,0,1,10.33,10.33v28.93a10.32,10.32,0,0,1-10.33,10.33H654.49a10.32,10.32,0,0,1-10.33-10.33Z" transform="translate(-131.22 -88.53)"/></g><text class="cls-9" transform="translate(532.57 414.97)">h</text><text class="cls-10" transform="translate(547.25 405.96)">&lt;t&gt;</text><g class="cls-2"><path class="cls-4" d="M644.14,394.3h0A10.33,10.33,0,0,1,654.47,384h57.32a10.33,10.33,0,0,1,10.34,10.33v28.93a10.33,10.33,0,0,1-10.34,10.33H654.47a10.33,10.33,0,0,1-10.33-10.33Z" transform="translate(-131.22 -88.53)"/></g><g class="cls-2"><line class="cls-8" x1="551.93" y1="377.79" x2="551.93" y2="345.05"/></g><text class="cls-9" transform="translate(533.23 328.95)">y</text><text class="cls-10" transform="translate(546.59 319.95)">&lt;t&gt;</text><g class="cls-2"><line class="cls-11" x1="551.91" y1="377.77" x2="551.91" y2="354.18"/><polygon class="cls-12" points="551.91 354.18 554.91 357.18 551.91 348.94 548.91 357.18 551.91 354.18"/><polygon class="cls-13" points="551.91 354.18 554.91 357.18 551.91 348.94 548.91 357.18 551.91 354.18"/></g><g class="cls-2"><path class="cls-14" d="M647.31,652.73h0a11.33,11.33,0,0,1,11.33-11.33h50.59a11.34,11.34,0,0,1,11.34,11.33v31.73a11.34,11.34,0,0,1-11.34,11.33H658.64a11.33,11.33,0,0,1-11.33-11.33Z" transform="translate(-131.22 -88.53)"/></g><g class="cls-2"><path class="cls-4" d="M647.29,652.72h0a11.33,11.33,0,0,1,11.33-11.33h50.6a11.34,11.34,0,0,1,11.33,11.33v31.72a11.33,11.33,0,0,1-11.33,11.33h-50.6a11.33,11.33,0,0,1-11.33-11.33Z" transform="translate(-131.22 -88.53)"/></g><g class="cls-2"><line class="cls-8" x1="552.71" y1="552.87" x2="552.71" y2="519.16"/></g><text class="cls-9" transform="translate(534.02 588.78)">x</text><text class="cls-10" transform="translate(547.37 579.77)">&lt;t&gt;</text><g class="cls-2"><line class="cls-11" x1="552.7" y1="552.85" x2="552.7" y2="528.29"/><polygon class="cls-12" points="552.7 528.29 555.7 531.29 552.7 523.05 549.7 531.29 552.7 528.29"/><polygon class="cls-13" points="552.7 528.29 555.7 531.29 552.7 523.05 549.7 531.29 552.7 528.29"/></g><g class="cls-2"><path class="cls-3" d="M756.41,494.78h0c0-15.72,22.2-28.46,49.58-28.46s49.59,12.74,49.59,28.46-22.2,28.47-49.59,28.47S756.41,510.5,756.41,494.78Z" transform="translate(-131.22 -88.53)"/></g><g class="cls-2"><path class="cls-4" d="M756.39,494.77h0c0-15.72,22.2-28.47,49.59-28.47s49.58,12.75,49.58,28.47-22.2,28.46-49.58,28.46S756.39,510.49,756.39,494.77Z" transform="translate(-131.22 -88.53)"/></g><g class="cls-2"><path class="cls-5" d="M764.51,394.56h0a10.33,10.33,0,0,1,10.33-10.33h62.3a10.33,10.33,0,0,1,10.34,10.33v28.93a10.33,10.33,0,0,1-10.34,10.33h-62.3a10.33,10.33,0,0,1-10.33-10.33Z" transform="translate(-131.22 -88.53)"/></g><text class="cls-9" transform="translate(650.31 414.96)">h</text><text class="cls-10" transform="translate(664.98 405.95)">(t+1)</text><g class="cls-2"><path class="cls-4" d="M764.49,394.55h0a10.34,10.34,0,0,1,10.34-10.33h62.29a10.35,10.35,0,0,1,10.34,10.33v28.93a10.33,10.33,0,0,1-10.34,10.33H774.83a10.33,10.33,0,0,1-10.34-10.33Z" transform="translate(-131.22 -88.53)"/></g><g class="cls-2"><line class="cls-8" x1="674.77" y1="377.78" x2="674.77" y2="345.29"/></g><text class="cls-9" transform="translate(650.96 329.21)">y</text><text class="cls-10" transform="translate(664.32 320.2)">(t+1)</text><g class="cls-2"><line class="cls-11" x1="674.75" y1="377.77" x2="674.75" y2="354.43"/><polygon class="cls-12" points="674.75 354.43 677.75 357.43 674.75 349.18 671.75 357.43 674.75 354.43"/><polygon class="cls-13" points="674.75 354.43 677.75 357.43 674.75 349.18 671.75 357.43 674.75 354.43"/></g><g class="cls-2"><path class="cls-14" d="M767.82,652.73h0a11.33,11.33,0,0,1,11.33-11.33h55.26a11.34,11.34,0,0,1,11.33,11.33v31.73a11.33,11.33,0,0,1-11.33,11.33H779.15a11.33,11.33,0,0,1-11.33-11.33Z" transform="translate(-131.22 -88.53)"/></g><g class="cls-2"><path class="cls-4" d="M767.8,652.72h0a11.33,11.33,0,0,1,11.33-11.33h55.26a11.34,11.34,0,0,1,11.33,11.33v31.72a11.33,11.33,0,0,1-11.33,11.33H779.13a11.33,11.33,0,0,1-11.33-11.33Z" transform="translate(-131.22 -88.53)"/></g><g class="cls-2"><line class="cls-8" x1="675.55" y1="552.87" x2="675.55" y2="519.16"/></g><text class="cls-9" transform="translate(651.75 588.78)">x</text><text class="cls-10" transform="translate(665.11 579.77)">(t+1)</text><g class="cls-2"><line class="cls-11" x1="675.54" y1="552.85" x2="675.54" y2="528.29"/><polygon class="cls-12" points="675.53 528.29 678.54 531.29 675.53 523.05 672.53 531.29 675.53 528.29"/><polygon class="cls-13" points="675.53 528.29 678.54 531.29 675.53 523.05 672.53 531.29 675.53 528.29"/></g><g class="cls-2"><line class="cls-8" x1="473.38" y1="406.6" x2="510.68" y2="406.24"/></g><g class="cls-2"><line class="cls-11" x1="473.37" y1="406.59" x2="501.52" y2="406.32"/><polygon class="cls-12" points="501.52 406.32 498.55 409.35 506.76 406.27 498.49 403.35 501.52 406.32"/><polygon class="cls-13" points="501.52 406.32 498.55 409.35 506.76 406.27 498.49 403.35 501.52 406.32"/></g><g class="cls-2"><line class="cls-8" x1="593.18" y1="406.25" x2="625.19" y2="406.25"/></g><g class="cls-2"><line class="cls-11" x1="593.16" y1="406.24" x2="616.02" y2="406.24"/><polygon class="cls-12" points="616.02 406.24 613.02 409.24 621.27 406.24 613.02 403.24 616.02 406.24"/><polygon class="cls-13" points="616.02 406.24 613.02 409.24 621.27 406.24 613.02 403.24 616.02 406.24"/></g><g class="cls-2"><path class="cls-15" d="M444.93,495.13h0a18.09,18.09,0,0,1,17.89-18.28,17.67,17.67,0,0,1,12.64,5.36,18.47,18.47,0,0,1,5.24,12.92,17.89,17.89,0,1,1-35.77,0Z" transform="translate(-131.22 -88.53)"/></g><g class="cls-2"><line class="cls-8" x1="349.48" y1="406.6" x2="379.61" y2="406.6"/></g><g class="cls-2"><line class="cls-11" x1="349.47" y1="406.59" x2="370.45" y2="406.59"/><polygon class="cls-12" points="370.45 406.59 367.45 409.59 375.7 406.59 367.45 403.59 370.45 406.59"/><polygon class="cls-13" points="370.45 406.59 367.45 409.59 375.7 406.59 367.45 403.59 370.45 406.59"/></g><g class="cls-2"><line class="cls-8" x1="724.35" y1="406.25" x2="748.75" y2="405.32"/></g><g class="cls-2"><line class="cls-11" x1="724.33" y1="406.23" x2="739.59" y2="405.66"/><polygon class="cls-12" points="739.59 405.66 736.71 408.77 744.83 405.46 736.48 402.77 739.59 405.66"/><polygon class="cls-13" points="739.59 405.66 736.71 408.77 744.83 405.46 736.48 402.77 739.59 405.66"/></g><g class="cls-2"><polygon class="cls-16" points="153.73 430.04 252.28 430.04 252.28 406.6 299.15 453.47 252.28 500.35 252.28 476.91 153.73 476.91 153.73 430.04"/></g><g class="cls-2"><polygon class="cls-17" points="153.72 430.02 252.27 430.02 252.27 406.59 299.14 453.46 252.27 500.33 252.27 476.9 153.72 476.9 153.72 430.02"/><path class="cls-3" d="M150.74,216.36h0c0-15,16-27.2,35.81-27.2s35.81,12.18,35.81,27.2-16,27.19-35.81,27.19S150.74,231.38,150.74,216.36Z" transform="translate(-131.22 -88.53)"/><path class="cls-4" d="M150.74,216.35h0c0-15,16-27.19,35.81-27.19s35.8,12.18,35.8,27.19-16,27.2-35.8,27.2S150.74,231.37,150.74,216.35Z" transform="translate(-131.22 -88.53)"/></g><text class="cls-18" transform="translate(172.48 463.08)">Unfold</text><g class="cls-2"><path class="cls-5" d="M148.71,99.87h0A10.32,10.32,0,0,1,159,89.54h54.51a10.33,10.33,0,0,1,10.33,10.33V128.8a10.33,10.33,0,0,1-10.33,10.33H159a10.32,10.32,0,0,1-10.33-10.33Z" transform="translate(-131.22 -88.53)"/></g><text class="cls-6" transform="translate(37.41 135.83)">h</text><text class="cls-7" transform="translate(50.99 127.49)">&lt;t&gt;</text><g class="cls-2"><path class="cls-4" d="M148.71,99.87h0A10.32,10.32,0,0,1,159,89.54h54.5a10.33,10.33,0,0,1,10.34,10.33V128.8a10.34,10.34,0,0,1-10.34,10.33H159a10.33,10.33,0,0,1-10.33-10.33Z" transform="translate(-131.22 -88.53)"/><line class="cls-8" x1="55.32" y1="100.63" x2="55.07" y2="50.59"/></g><text class="cls-9" transform="translate(36.37 34.51)">y</text><text class="cls-10" transform="translate(49.73 25.51)">&lt;t&gt;</text><g class="cls-2"><line class="cls-11" x1="55.32" y1="100.63" x2="55.12" y2="59.74"/><polygon class="cls-12" points="55.12 59.74 58.13 62.72 55.09 54.49 52.13 62.75 55.12 59.74"/><polygon class="cls-13" points="55.12 59.74 58.13 62.72 55.09 54.49 52.13 62.75 55.12 59.74"/><path class="cls-14" d="M151,304.91h0a11.33,11.33,0,0,1,11.33-11.33h48a11.34,11.34,0,0,1,11.33,11.33v31.73A11.33,11.33,0,0,1,210.27,348h-48A11.33,11.33,0,0,1,151,336.64Z" transform="translate(-131.22 -88.53)"/><path class="cls-4" d="M151,304.91h0a11.33,11.33,0,0,1,11.33-11.33h48a11.34,11.34,0,0,1,11.33,11.33v31.72A11.33,11.33,0,0,1,210.27,348h-48A11.33,11.33,0,0,1,151,336.63Z" transform="translate(-131.22 -88.53)"/><line class="cls-8" x1="55.07" y1="205.05" x2="55.32" y2="155.01"/></g><text class="cls-9" transform="translate(36.37 240.96)">x</text><text class="cls-10" transform="translate(49.73 231.95)">&lt;t&gt;</text><g class="cls-2"><line class="cls-11" x1="55.07" y1="205.04" x2="55.28" y2="164.15"/><polygon class="cls-12" points="55.27 164.15 58.26 167.17 55.3 158.91 52.26 167.14 55.27 164.15"/><polygon class="cls-13" points="55.27 164.15 58.26 167.17 55.3 158.91 52.26 167.14 55.27 164.15"/><path class="cls-15" d="M211.87,197.13c0-12.32,13-27.39,26-24.65s26,23.31,26,43.88-13,41.12-26,43.87-26-12.32-26-24.64" transform="translate(-131.22 -88.53)"/><path class="cls-11" d="M211.87,197.13c0-12.33,13-27.4,26-24.65s26,23.31,26,43.87-13,41.13-26,43.88c-6.51,1.37-13-1.71-17.89-6.68a30.52,30.52,0,0,1-5.9-8.53,2.55,2.55,0,0,0-.13-.29l-.09-.23" transform="translate(-131.22 -88.53)"/><polygon class="cls-12" points="82.69 155.97 86.28 158.24 81.54 150.85 80.42 159.56 82.69 155.97"/><polygon class="cls-13" points="82.69 155.97 86.28 158.24 81.54 150.85 80.42 159.56 82.69 155.97"/><path class="cls-3" d="M518.55,217.63h0c0-15.72,21-28.47,46.89-28.47s46.88,12.75,46.88,28.47-21,28.46-46.88,28.46S518.55,233.35,518.55,217.63Z" transform="translate(-131.22 -88.53)"/><path class="cls-4" d="M518.54,217.62h0c0-15.72,21-28.46,46.89-28.46s46.88,12.74,46.88,28.46-21,28.47-46.88,28.47S518.54,233.35,518.54,217.62Z" transform="translate(-131.22 -88.53)"/><path class="cls-5" d="M524.8,99.87h0a10.33,10.33,0,0,1,10.33-10.33h60.6a10.33,10.33,0,0,1,10.34,10.33V128.8a10.34,10.34,0,0,1-10.34,10.33h-60.6A10.34,10.34,0,0,1,524.8,128.8Z" transform="translate(-131.22 -88.53)"/></g><text class="cls-9" transform="translate(407.74 137.81)">h</text><text class="cls-10" transform="translate(422.41 128.8)">&lt;t-1&gt;</text><g class="cls-2"><path class="cls-4" d="M524.79,99.87h0a10.34,10.34,0,0,1,10.33-10.34h60.6a10.33,10.33,0,0,1,10.33,10.34V128.8a10.33,10.33,0,0,1-10.33,10.33h-60.6a10.34,10.34,0,0,1-10.33-10.33Z" transform="translate(-131.22 -88.53)"/><line class="cls-8" x1="434.21" y1="100.63" x2="434.21" y2="50.59"/></g><text class="cls-9" transform="translate(408.39 34.51)">y</text><text class="cls-10" transform="translate(421.75 25.51)">&lt;t-1&gt;</text><g class="cls-2"><line class="cls-11" x1="434.2" y1="100.63" x2="434.2" y2="59.74"/><polygon class="cls-12" points="434.2 59.74 437.2 62.74 434.2 54.49 431.2 62.74 434.2 59.74"/><polygon class="cls-13" points="434.2 59.74 437.2 62.74 434.2 54.49 431.2 62.74 434.2 59.74"/><path class="cls-14" d="M527.27,304.91h0a11.33,11.33,0,0,1,11.33-11.33h53.68a11.34,11.34,0,0,1,11.34,11.33v31.73A11.34,11.34,0,0,1,592.28,348H538.6a11.33,11.33,0,0,1-11.33-11.33Z" transform="translate(-131.22 -88.53)"/><path class="cls-4" d="M527.26,304.91h0a11.33,11.33,0,0,1,11.33-11.33h53.68a11.32,11.32,0,0,1,11.33,11.33v31.72A11.33,11.33,0,0,1,592.27,348H538.59a11.33,11.33,0,0,1-11.33-11.33Z" transform="translate(-131.22 -88.53)"/><line class="cls-8" x1="434.22" y1="205.05" x2="434.22" y2="157.55"/></g><text class="cls-9" transform="translate(408.4 240.96)">x</text><text class="cls-10" transform="translate(421.76 231.95)">&lt;t-1&gt;</text><g class="cls-2"><line class="cls-11" x1="434.2" y1="205.04" x2="434.2" y2="166.7"/><polygon class="cls-12" points="434.2 166.7 437.2 169.7 434.2 161.45 431.2 169.7 434.2 166.7"/><polygon class="cls-13" points="434.2 166.7 437.2 169.7 434.2 161.45 431.2 169.7 434.2 166.7"/><path class="cls-3" d="M649.62,217.28h0c0-15.72,18.47-28.47,41.25-28.47s41.25,12.75,41.25,28.47-18.47,28.46-41.25,28.46S649.62,233,649.62,217.28Z" transform="translate(-131.22 -88.53)"/><path class="cls-4" d="M649.6,217.27h0c0-15.72,18.47-28.46,41.25-28.46s41.26,12.74,41.26,28.46-18.47,28.47-41.26,28.47S649.6,233,649.6,217.27Z" transform="translate(-131.22 -88.53)"/><path class="cls-5" d="M651.87,100.79h0a10.33,10.33,0,0,1,10.34-10.33h57.32a10.33,10.33,0,0,1,10.33,10.33v28.93a10.33,10.33,0,0,1-10.33,10.33H662.21a10.33,10.33,0,0,1-10.34-10.33Z" transform="translate(-131.22 -88.53)"/></g><text class="cls-9" transform="translate(540.29 137.46)">h</text><text class="cls-10" transform="translate(554.96 128.45)">&lt;t&gt;</text><g class="cls-2"><path class="cls-4" d="M651.86,100.79h0a10.33,10.33,0,0,1,10.33-10.33h57.32a10.31,10.31,0,0,1,10.33,10.33v28.93a10.33,10.33,0,0,1-10.33,10.33H662.19a10.34,10.34,0,0,1-10.33-10.33Z" transform="translate(-131.22 -88.53)"/><line class="cls-8" x1="559.65" y1="100.28" x2="559.65" y2="51.52"/></g><text class="cls-9" transform="translate(540.95 35.43)">y</text><text class="cls-10" transform="translate(554.3 26.43)">&lt;t&gt;</text><g class="cls-2"><line class="cls-11" x1="559.63" y1="100.28" x2="559.63" y2="60.67"/><polygon class="cls-12" points="559.63 60.67 562.63 63.67 559.63 55.42 556.63 63.67 559.63 60.67"/><polygon class="cls-13" points="559.63 60.67 562.63 63.67 559.63 55.42 556.63 63.67 559.63 60.67"/><path class="cls-14" d="M654.24,305.84h0a11.34,11.34,0,0,1,11.33-11.34h50.6a11.34,11.34,0,0,1,11.33,11.34v31.72a11.33,11.33,0,0,1-11.33,11.33h-50.6a11.33,11.33,0,0,1-11.33-11.33Z" transform="translate(-131.22 -88.53)"/><path class="cls-4" d="M654.22,305.83h0a11.34,11.34,0,0,1,11.34-11.33h50.59a11.34,11.34,0,0,1,11.33,11.33v31.72a11.33,11.33,0,0,1-11.33,11.33H665.56a11.34,11.34,0,0,1-11.34-11.33Z" transform="translate(-131.22 -88.53)"/><line class="cls-8" x1="559.64" y1="205.97" x2="559.64" y2="157.22"/></g><text class="cls-9" transform="translate(540.95 241.88)">x</text><text class="cls-10" transform="translate(554.31 232.87)">&lt;t&gt;</text><g class="cls-2"><line class="cls-11" x1="559.63" y1="205.96" x2="559.63" y2="166.36"/><polygon class="cls-12" points="559.63 166.36 562.63 169.36 559.63 161.11 556.63 169.36 559.63 166.36"/><polygon class="cls-13" points="559.63 166.36 562.63 169.36 559.63 161.11 556.63 169.36 559.63 166.36"/><path class="cls-3" d="M764.13,217.27h0c0-15.72,22.2-28.46,49.58-28.46s49.59,12.74,49.59,28.46-22.2,28.47-49.59,28.47S764.13,233,764.13,217.27Z" transform="translate(-131.22 -88.53)"/><path class="cls-4" d="M764.11,217.27h0c0-15.72,22.2-28.46,49.58-28.46s49.59,12.74,49.59,28.46-22.2,28.46-49.59,28.46S764.11,233,764.11,217.27Z" transform="translate(-131.22 -88.53)"/><path class="cls-5" d="M771.31,100.79h0a10.34,10.34,0,0,1,10.34-10.34H844a10.35,10.35,0,0,1,10.33,10.34v28.93A10.34,10.34,0,0,1,844,140.05h-62.3a10.34,10.34,0,0,1-10.34-10.33Z" transform="translate(-131.22 -88.53)"/></g><text class="cls-9" transform="translate(658.02 137.45)">h</text><text class="cls-10" transform="translate(672.7 128.45)">(t+1)</text><g class="cls-2"><path class="cls-4" d="M771.29,100.79h0a10.34,10.34,0,0,1,10.34-10.34h62.3a10.35,10.35,0,0,1,10.33,10.34v28.92a10.34,10.34,0,0,1-10.33,10.34h-62.3a10.34,10.34,0,0,1-10.34-10.34Z" transform="translate(-131.22 -88.53)"/><line class="cls-8" x1="682.49" y1="100.28" x2="681.56" y2="51.52"/></g><text class="cls-9" transform="translate(657.76 35.43)">y</text><text class="cls-10" transform="translate(671.12 26.42)">(t+1)</text><g class="cls-2"><line class="cls-11" x1="682.47" y1="100.27" x2="681.72" y2="60.66"/><polygon class="cls-12" points="681.72 60.66 684.77 63.61 681.62 55.42 678.77 63.72 681.72 60.66"/><polygon class="cls-13" points="681.72 60.66 684.77 63.61 681.62 55.42 678.77 63.72 681.72 60.66"/><path class="cls-14" d="M774.28,305.83h0a11.34,11.34,0,0,1,11.34-11.33h55.26a11.34,11.34,0,0,1,11.33,11.33v31.73a11.33,11.33,0,0,1-11.33,11.33H785.62a11.34,11.34,0,0,1-11.34-11.33Z" transform="translate(-131.22 -88.53)"/><path class="cls-4" d="M774.27,305.83h0A11.33,11.33,0,0,1,785.6,294.5h55.26a11.32,11.32,0,0,1,11.33,11.33v31.72a11.33,11.33,0,0,1-11.33,11.33H785.6a11.33,11.33,0,0,1-11.33-11.33Z" transform="translate(-131.22 -88.53)"/><line class="cls-8" x1="682.02" y1="205.97" x2="682.48" y2="157.21"/></g><text class="cls-9" transform="translate(658.21 241.87)">x</text><text class="cls-10" transform="translate(671.57 232.87)">(t+1)</text><g class="cls-2"><line class="cls-11" x1="682" y1="205.96" x2="682.38" y2="166.35"/><polygon class="cls-12" points="682.38 166.35 685.35 169.38 682.43 161.11 679.35 169.33 682.38 166.35"/><polygon class="cls-13" points="682.38 166.35 685.35 169.38 682.43 161.11 679.35 169.33 682.38 166.35"/><line class="cls-8" x1="481.1" y1="129.09" x2="518.4" y2="128.74"/><line class="cls-11" x1="481.08" y1="129.09" x2="509.24" y2="128.82"/><polygon class="cls-12" points="509.24 128.82 506.27 131.85 514.48 128.77 506.21 125.85 509.24 128.82"/><polygon class="cls-13" points="509.24 128.82 506.27 131.85 514.48 128.77 506.21 125.85 509.24 128.82"/><line class="cls-8" x1="600.9" y1="128.74" x2="632.9" y2="128.74"/><line class="cls-11" x1="600.88" y1="128.74" x2="623.74" y2="128.74"/><polygon class="cls-12" points="623.74 128.74 620.74 131.74 628.99 128.74 620.74 125.74 623.74 128.74"/><polygon class="cls-13" points="623.74 128.74 620.74 131.74 628.99 128.74 620.74 125.74 623.74 128.74"/><path class="cls-15" d="M452.65,217.63h0a18.08,18.08,0,0,1,17.88-18.28,17.67,17.67,0,0,1,12.65,5.35,18.52,18.52,0,0,1,5.24,12.93,17.89,17.89,0,1,1-35.77,0Z" transform="translate(-131.22 -88.53)"/><line class="cls-8" x1="357.19" y1="129.09" x2="387.33" y2="129.09"/><line class="cls-11" x1="357.18" y1="129.09" x2="378.17" y2="129.09"/><polygon class="cls-12" points="378.17 129.09 375.17 132.09 383.42 129.09 375.17 126.09 378.17 129.09"/><polygon class="cls-13" points="378.17 129.09 375.17 132.09 383.42 129.09 375.17 126.09 378.17 129.09"/><line class="cls-8" x1="732.07" y1="128.74" x2="756.47" y2="127.82"/><line class="cls-11" x1="732.05" y1="128.74" x2="747.31" y2="128.16"/><polygon class="cls-12" points="747.31 128.16 744.42 131.27 752.55 127.96 744.2 125.27 747.31 128.16"/><polygon class="cls-13" points="747.31 128.16 744.42 131.27 752.55 127.96 744.2 125.27 747.31 128.16"/><polygon class="cls-16" points="157.26 101.29 255.81 101.29 255.81 77.85 302.68 124.73 255.81 171.6 255.81 148.16 157.26 148.16 157.26 101.29"/><polygon class="cls-17" points="157.25 101.29 255.8 101.29 255.8 77.85 302.68 124.72 255.8 171.59 255.8 148.16 157.25 148.16 157.25 101.29"/><path class="cls-19" d="M476.49,216.81h0a3.41,3.41,0,0,1,3.45-3.37,3.52,3.52,0,0,1,2.45,1,3.31,3.31,0,0,1,1,2.38,3.46,3.46,0,0,1-6.91,0Z" transform="translate(-131.22 -88.53)"/><path class="cls-17" d="M476.48,216.81h0a3.42,3.42,0,0,1,3.46-3.37,3.51,3.51,0,0,1,2.44,1,3.34,3.34,0,0,1,1,2.39,3.46,3.46,0,0,1-6.91,0Z" transform="translate(-131.22 -88.53)"/></g><text class="cls-18" transform="translate(176.01 134.33)">Unfold</text><g class="cls-2"><path class="cls-19" d="M464.56,216.81h0a3.42,3.42,0,0,1,3.46-3.37,3.52,3.52,0,0,1,2.44,1,3.31,3.31,0,0,1,1,2.38,3.46,3.46,0,0,1-6.91,0Z" transform="translate(-131.22 -88.53)"/><path class="cls-17" d="M464.55,216.81h0a3.42,3.42,0,0,1,3.46-3.37,3.51,3.51,0,0,1,2.44,1,3.34,3.34,0,0,1,1,2.39,3.46,3.46,0,0,1-6.91,0Z" transform="translate(-131.22 -88.53)"/></g><g class="cls-2"><path class="cls-3" d="M143.8,578.32h0c0-15,16-27.2,35.81-27.2s35.81,12.18,35.81,27.2-16,27.19-35.81,27.19S143.8,593.33,143.8,578.32Z" transform="translate(-131.22 -88.53)"/></g><g class="cls-2"><path class="cls-4" d="M143.8,578.3h0c0-15,16-27.19,35.81-27.19s35.81,12.17,35.81,27.19-16,27.19-35.81,27.19S143.8,593.32,143.8,578.3Z" transform="translate(-131.22 -88.53)"/></g><g class="cls-2"><path class="cls-15" d="M204.94,559.09c0-7.76,13.38-18.54,26.77-15.52s26.78,19.86,26.78,37-13.38,34.49-26.76,37-26.75-10-26.75-20" transform="translate(-131.22 -88.53)"/></g><text class="cls-6" transform="translate(30.47 497.79)">h</text><text class="cls-7" transform="translate(44.06 489.45)">&lt;t&gt;</text><g class="cls-2"><path class="cls-11" d="M204.93,559.07c0-7.75,13.39-18.53,26.78-15.51s26.77,19.86,26.78,37-13.38,34.49-26.76,37c-6.69,1.24-13.38-1.26-18.39-5.31a26.79,26.79,0,0,1-3.43-3.29c-.51-.59-1-1.19-1.42-1.8l-.33-.47-.15-.23-.12-.18" transform="translate(-131.22 -88.53)"/><polygon class="cls-12" points="76.66 517.66 80.46 519.55 74.99 512.69 74.77 521.47 76.66 517.66"/><polygon class="cls-13" points="76.66 517.66 80.46 519.55 74.99 512.69 74.77 521.47 76.66 517.66"/></g><g class="cls-2"><path class="cls-3" d="M511.62,579.59h0c0-15.72,21-28.47,46.88-28.47s46.89,12.75,46.89,28.47-21,28.46-46.89,28.46S511.62,595.31,511.62,579.59Z" transform="translate(-131.22 -88.53)"/></g><g class="cls-2"><path class="cls-4" d="M511.61,579.57h0c0-15.72,21-28.46,46.88-28.46s46.89,12.74,46.89,28.46S584.39,608,558.49,608,511.61,595.29,511.61,579.57Z" transform="translate(-131.22 -88.53)"/></g><g class="cls-2"><path class="cls-3" d="M642.69,579.24h0c0-15.72,18.46-28.47,41.25-28.47s41.25,12.75,41.25,28.47-18.47,28.46-41.25,28.46S642.69,595,642.69,579.24Z" transform="translate(-131.22 -88.53)"/></g><text class="cls-9" transform="translate(400.81 499.77)">h</text><text class="cls-10" transform="translate(415.48 490.76)">&lt;t-1&gt;</text><g class="cls-2"><path class="cls-4" d="M642.67,579.22h0c0-15.72,18.47-28.46,41.25-28.46s41.25,12.74,41.25,28.46-18.47,28.47-41.25,28.47S642.67,594.94,642.67,579.22Z" transform="translate(-131.22 -88.53)"/></g><g class="cls-2"><path class="cls-3" d="M757.19,579.23h0c0-15.72,22.2-28.46,49.59-28.46s49.58,12.74,49.58,28.46-22.2,28.47-49.58,28.47S757.19,595,757.19,579.23Z" transform="translate(-131.22 -88.53)"/></g><text class="cls-9" transform="translate(533.36 499.42)">h</text><text class="cls-10" transform="translate(548.03 490.41)">&lt;t&gt;</text><g class="cls-2"><path class="cls-4" d="M757.18,579.22h0c0-15.72,22.2-28.47,49.58-28.47s49.58,12.75,49.58,28.47-22.2,28.46-49.58,28.46S757.18,594.94,757.18,579.22Z" transform="translate(-131.22 -88.53)"/></g><g class="cls-2"><line class="cls-8" x1="474.16" y1="491.05" x2="511.47" y2="490.7"/></g><text class="cls-9" transform="translate(651.09 499.41)">h</text><text class="cls-10" transform="translate(665.76 490.4)">(t+1)</text><g class="cls-2"><line class="cls-11" x1="474.15" y1="491.04" x2="502.31" y2="490.77"/><polygon class="cls-12" points="502.31 490.77 499.33 493.8 507.55 490.72 499.27 487.8 502.31 490.77"/><polygon class="cls-13" points="502.31 490.77 499.33 493.8 507.55 490.72 499.27 487.8 502.31 490.77"/></g><g class="cls-2"><line class="cls-8" x1="593.97" y1="490.7" x2="625.97" y2="490.7"/></g><g class="cls-2"><line class="cls-11" x1="593.95" y1="490.69" x2="616.81" y2="490.69"/><polygon class="cls-12" points="616.81 490.69 613.81 493.69 622.05 490.69 613.81 487.69 616.81 490.69"/><polygon class="cls-13" points="616.81 490.69 613.81 493.69 622.05 490.69 613.81 487.69 616.81 490.69"/></g><g class="cls-2"><path class="cls-15" d="M445.72,579.59h0A18.09,18.09,0,0,1,463.6,561.3a17.71,17.71,0,0,1,12.65,5.36,18.51,18.51,0,0,1,5.23,12.93,17.88,17.88,0,1,1-35.76,0Z" transform="translate(-131.22 -88.53)"/></g><g class="cls-2"><line class="cls-8" x1="350.26" y1="491.05" x2="380.39" y2="491.05"/></g><g class="cls-2"><line class="cls-11" x1="350.25" y1="491.04" x2="371.24" y2="491.04"/><polygon class="cls-12" points="371.24 491.04 368.24 494.04 376.48 491.04 368.24 488.04 371.24 491.04"/><polygon class="cls-13" points="371.24 491.04 368.24 494.04 376.48 491.04 368.24 488.04 371.24 491.04"/></g><g class="cls-2"><line class="cls-8" x1="725.14" y1="490.7" x2="749.54" y2="489.77"/></g><g class="cls-2"><line class="cls-11" x1="725.12" y1="490.68" x2="740.38" y2="490.11"/><polygon class="cls-12" points="740.38 490.11 737.49 493.22 745.62 489.91 737.26 487.22 740.38 490.11"/><polygon class="cls-13" points="740.38 490.11 737.49 493.22 745.62 489.91 737.26 487.22 740.38 490.11"/></g><g class="cls-2"><line class="cls-8" x1="48.39" y1="462.59" x2="47.61" y2="432.52"/></g><g class="cls-2"><line class="cls-11" x1="48.39" y1="462.57" x2="47.85" y2="441.65"/><polygon class="cls-12" points="47.85 441.65 50.92 444.57 47.71 436.4 44.92 444.72 47.85 441.65"/><polygon class="cls-13" points="47.85 441.65 50.92 444.57 47.71 436.4 44.92 444.72 47.85 441.65"/></g><g class="cls-2"><line class="cls-8" x1="427.28" y1="462.59" x2="427.03" y2="435.69"/></g><g class="cls-2"><line class="cls-11" x1="427.27" y1="462.57" x2="427.1" y2="444.82"/><polygon class="cls-12" points="427.1 444.82 430.13 447.8 427.05 439.58 424.13 447.85 427.1 444.82"/><polygon class="cls-13" points="427.1 444.82 430.13 447.8 427.05 439.58 424.13 447.85 427.1 444.82"/></g><g class="cls-2"><line class="cls-8" x1="552.71" y1="462.24" x2="552.12" y2="434.69"/></g><g class="cls-2"><line class="cls-11" x1="552.7" y1="462.22" x2="552.3" y2="443.82"/><polygon class="cls-12" points="552.3 443.82 555.37 446.75 552.19 438.57 549.37 446.88 552.3 443.82"/><polygon class="cls-13" points="552.3 443.82 555.37 446.75 552.19 438.57 549.37 446.88 552.3 443.82"/></g><g class="cls-2"><line class="cls-8" x1="675.55" y1="462.23" x2="675.58" y2="435.02"/></g><g class="cls-2"><line class="cls-11" x1="675.54" y1="462.22" x2="675.55" y2="444.15"/><polygon class="cls-12" points="675.55 444.15 678.55 447.16 675.55 438.91 672.55 447.15 675.55 444.15"/><polygon class="cls-13" points="675.55 444.15 678.55 447.16 675.55 438.91 672.55 447.15 675.55 444.15"/></g><g class="cls-2"><rect class="cls-8" x="114.66" y="285.41" width="242.95" height="56.93"/></g><g class="cls-2"><rect class="cls-8" x="120.67" y="292.63" width="158.16" height="25.57"/></g><g class="cls-2"><polygon class="cls-8" points="278.83 292.63 278.83 292.63 278.83 318.2 278.83 292.63"/></g><g class="cls-2"><rect x="120.67" y="314.21" width="158.16" height="2"/></g><g class="cls-2"><rect class="cls-8" x="121.64" y="1.92" width="242.95" height="56.93"/><rect class="cls-8" x="127.64" y="9.15" width="79.08" height="25.57"/></g><text class="cls-20" transform="translate(120.67 312.76)">Multilayer RNN</text><g class="cls-2"><rect class="cls-21" x="206.72" y="9.15" width="100.11" height="25.57"/><polygon class="cls-21" points="306.83 9.15 306.83 9.15 306.83 34.72 306.83 9.15"/><rect x="127.64" y="30.72" width="179.19" height="2"/></g><g class="cls-2"><line class="cls-8" y1="276.16" x2="798.05" y2="278.69"/></g><g class="cls-2"><line class="cls-17" y1="276.16" x2="798.02" y2="278.68"/></g><g class="cls-2"><rect class="cls-8" x="33.44" y="496.39" width="32.01" height="32.43"/></g><text class="cls-22" transform="translate(44.5 512.2)">1</text><text class="cls-20" transform="translate(127.64 29.28)">Single <tspan class="cls-23" x="72.91" y="0">l</tspan><tspan x="79.18" y="0">ayer RNN</tspan></text><g class="cls-2"><rect class="cls-8" x="408.54" y="497.08" width="32.01" height="32.43"/></g><text class="cls-22" transform="translate(419.59 512.9)">1</text><g class="cls-2"><rect class="cls-8" x="541.42" y="496.68" width="32.01" height="32.43"/></g><text class="cls-10" transform="translate(552.97 512.6)">1</text><g class="cls-2"><rect class="cls-8" x="654.21" y="497.54" width="32.01" height="32.43"/></g><text class="cls-10" transform="translate(665.76 513.46)">1</text><g class="cls-2"><rect class="cls-8" x="33.44" y="410.99" width="32.01" height="32.43"/></g><text class="cls-10" transform="translate(44.99 426.91)">2</text><g class="cls-2"><rect class="cls-8" x="408.54" y="411.68" width="32.01" height="32.43"/></g><text class="cls-10" transform="translate(420.09 427.6)">2</text><g class="cls-2"><rect class="cls-8" x="541.42" y="411.27" width="32.01" height="32.43"/></g><text class="cls-10" transform="translate(552.97 427.19)">2</text><g class="cls-2"><rect class="cls-8" x="654.21" y="412.13" width="32.01" height="32.43"/></g><text class="cls-24" transform="translate(665.93 427.87)">2</text><g class="cls-2"><path class="cls-19" d="M453.33,216.81h0a3.41,3.41,0,0,1,3.45-3.37,3.52,3.52,0,0,1,2.45,1,3.31,3.31,0,0,1,1,2.38,3.46,3.46,0,0,1-6.91,0Z" transform="translate(-131.22 -88.53)"/><path class="cls-17" d="M453.32,216.81h0a3.42,3.42,0,0,1,3.46-3.37,3.51,3.51,0,0,1,2.44,1,3.34,3.34,0,0,1,1,2.39,3.46,3.46,0,0,1-6.91,0Z" transform="translate(-131.22 -88.53)"/><path class="cls-19" d="M914.19,216.81h0a3.42,3.42,0,0,1,3.46-3.37,3.52,3.52,0,0,1,2.44,1,3.31,3.31,0,0,1,1,2.38,3.46,3.46,0,0,1-6.91,0Z" transform="translate(-131.22 -88.53)"/><path class="cls-17" d="M914.17,216.81h0a3.41,3.41,0,0,1,3.45-3.37,3.52,3.52,0,0,1,2.45,1,3.34,3.34,0,0,1,1,2.39,3.46,3.46,0,0,1-6.91,0Z" transform="translate(-131.22 -88.53)"/><path class="cls-19" d="M902.26,216.81h0a3.42,3.42,0,0,1,3.46-3.37,3.52,3.52,0,0,1,2.44,1,3.31,3.31,0,0,1,1,2.38,3.46,3.46,0,0,1-6.91,0Z" transform="translate(-131.22 -88.53)"/><path class="cls-17" d="M902.24,216.81h0a3.41,3.41,0,0,1,3.45-3.37,3.52,3.52,0,0,1,2.45,1,3.34,3.34,0,0,1,1,2.39,3.46,3.46,0,0,1-6.91,0Z" transform="translate(-131.22 -88.53)"/><path class="cls-19" d="M891,216.81h0a3.41,3.41,0,0,1,3.45-3.37,3.52,3.52,0,0,1,2.45,1,3.31,3.31,0,0,1,1,2.38,3.46,3.46,0,0,1-6.91,0Z" transform="translate(-131.22 -88.53)"/><path class="cls-17" d="M891,216.81h0a3.41,3.41,0,0,1,3.45-3.37,3.52,3.52,0,0,1,2.45,1,3.34,3.34,0,0,1,1,2.39,3.46,3.46,0,0,1-6.91,0Z" transform="translate(-131.22 -88.53)"/></g><g class="cls-2"><path class="cls-19" d="M908.85,494.38h0a3.42,3.42,0,0,1,3.46-3.37,3.51,3.51,0,0,1,2.44,1,3.34,3.34,0,0,1,1,2.39,3.46,3.46,0,0,1-6.91,0Z" transform="translate(-131.22 -88.53)"/></g><g class="cls-2"><path class="cls-17" d="M908.83,494.37h0a3.42,3.42,0,0,1,3.46-3.38,3.52,3.52,0,0,1,2.44,1,3.32,3.32,0,0,1,1,2.39,3.46,3.46,0,0,1-6.91,0Z" transform="translate(-131.22 -88.53)"/></g><g class="cls-2"><path class="cls-19" d="M896.92,494.38h0a3.42,3.42,0,0,1,3.46-3.37,3.51,3.51,0,0,1,2.44,1,3.34,3.34,0,0,1,1,2.39,3.46,3.46,0,0,1-6.91,0Z" transform="translate(-131.22 -88.53)"/></g><g class="cls-2"><path class="cls-17" d="M896.9,494.37h0a3.42,3.42,0,0,1,3.46-3.38,3.52,3.52,0,0,1,2.44,1,3.32,3.32,0,0,1,1,2.39,3.46,3.46,0,0,1-6.91,0Z" transform="translate(-131.22 -88.53)"/></g><g class="cls-2"><path class="cls-19" d="M885.69,494.38h0a3.42,3.42,0,0,1,3.46-3.37,3.51,3.51,0,0,1,2.44,1,3.34,3.34,0,0,1,1,2.39,3.46,3.46,0,0,1-6.91,0Z" transform="translate(-131.22 -88.53)"/></g><g class="cls-2"><path class="cls-17" d="M885.67,494.37h0a3.42,3.42,0,0,1,3.46-3.38,3.52,3.52,0,0,1,2.44,1,3.32,3.32,0,0,1,1,2.39,3.46,3.46,0,0,1-6.91,0Z" transform="translate(-131.22 -88.53)"/></g><g class="cls-2"><path class="cls-19" d="M908.85,579.78h0a3.42,3.42,0,0,1,3.46-3.37,3.52,3.52,0,0,1,2.44,1,3.31,3.31,0,0,1,1,2.38,3.46,3.46,0,0,1-6.91,0Z" transform="translate(-131.22 -88.53)"/></g><g class="cls-2"><path class="cls-17" d="M908.83,579.77h0a3.42,3.42,0,0,1,3.46-3.37,3.51,3.51,0,0,1,2.44,1,3.34,3.34,0,0,1,1,2.39,3.46,3.46,0,0,1-6.91,0Z" transform="translate(-131.22 -88.53)"/></g><g class="cls-2"><path class="cls-19" d="M896.92,579.78h0a3.42,3.42,0,0,1,3.46-3.37,3.52,3.52,0,0,1,2.44,1,3.31,3.31,0,0,1,1,2.38,3.46,3.46,0,0,1-6.91,0Z" transform="translate(-131.22 -88.53)"/></g><g class="cls-2"><path class="cls-17" d="M896.9,579.77h0a3.42,3.42,0,0,1,3.46-3.37,3.51,3.51,0,0,1,2.44,1,3.34,3.34,0,0,1,1,2.39,3.46,3.46,0,0,1-6.91,0Z" transform="translate(-131.22 -88.53)"/></g><g class="cls-2"><path class="cls-19" d="M885.69,579.78h0a3.42,3.42,0,0,1,3.46-3.37,3.52,3.52,0,0,1,2.44,1,3.31,3.31,0,0,1,1,2.38,3.46,3.46,0,0,1-6.91,0Z" transform="translate(-131.22 -88.53)"/></g><g class="cls-2"><path class="cls-17" d="M885.67,579.77h0a3.42,3.42,0,0,1,3.46-3.37,3.51,3.51,0,0,1,2.44,1,3.34,3.34,0,0,1,1,2.39,3.46,3.46,0,0,1-6.91,0Z" transform="translate(-131.22 -88.53)"/></g><g class="cls-2"><path class="cls-19" d="M465.81,494.38h0a3.42,3.42,0,0,1,3.46-3.37,3.47,3.47,0,0,1,2.44,1,3.35,3.35,0,0,1,1,2.39,3.46,3.46,0,0,1-6.92,0Z" transform="translate(-131.22 -88.53)"/></g><g class="cls-2"><path class="cls-17" d="M465.8,494.37h0a3.42,3.42,0,0,1,3.46-3.38,3.48,3.48,0,0,1,2.44,1,3.33,3.33,0,0,1,1,2.39,3.46,3.46,0,0,1-6.92,0Z" transform="translate(-131.22 -88.53)"/></g><g class="cls-2"><path class="cls-19" d="M453.88,494.38h0a3.42,3.42,0,0,1,3.46-3.37,3.47,3.47,0,0,1,2.44,1,3.35,3.35,0,0,1,1,2.39,3.46,3.46,0,0,1-6.92,0Z" transform="translate(-131.22 -88.53)"/></g><g class="cls-2"><path class="cls-17" d="M453.87,494.37h0a3.42,3.42,0,0,1,3.46-3.38,3.48,3.48,0,0,1,2.44,1,3.33,3.33,0,0,1,1,2.39,3.46,3.46,0,0,1-6.92,0Z" transform="translate(-131.22 -88.53)"/></g><g class="cls-2"><path class="cls-19" d="M442.65,494.38h0a3.42,3.42,0,0,1,3.46-3.37,3.47,3.47,0,0,1,2.44,1,3.35,3.35,0,0,1,1,2.39,3.46,3.46,0,0,1-6.92,0Z" transform="translate(-131.22 -88.53)"/></g><g class="cls-2"><path class="cls-17" d="M442.64,494.37h0A3.42,3.42,0,0,1,446.1,491a3.48,3.48,0,0,1,2.44,1,3.33,3.33,0,0,1,1,2.39,3.46,3.46,0,0,1-6.92,0Z" transform="translate(-131.22 -88.53)"/></g><g class="cls-2"><path class="cls-19" d="M465.81,579.78h0a3.42,3.42,0,0,1,3.46-3.37,3.48,3.48,0,0,1,2.44,1,3.32,3.32,0,0,1,1,2.38,3.46,3.46,0,0,1-6.92,0Z" transform="translate(-131.22 -88.53)"/></g><g class="cls-2"><path class="cls-17" d="M465.8,579.77h0a3.42,3.42,0,0,1,3.46-3.37,3.47,3.47,0,0,1,2.44,1,3.35,3.35,0,0,1,1,2.39,3.46,3.46,0,0,1-6.92,0Z" transform="translate(-131.22 -88.53)"/></g><g class="cls-2"><path class="cls-19" d="M453.88,579.78h0a3.42,3.42,0,0,1,3.46-3.37,3.48,3.48,0,0,1,2.44,1,3.32,3.32,0,0,1,1,2.38,3.46,3.46,0,0,1-6.92,0Z" transform="translate(-131.22 -88.53)"/></g><g class="cls-2"><path class="cls-17" d="M453.87,579.77h0a3.42,3.42,0,0,1,3.46-3.37,3.47,3.47,0,0,1,2.44,1,3.35,3.35,0,0,1,1,2.39,3.46,3.46,0,0,1-6.92,0Z" transform="translate(-131.22 -88.53)"/></g><g class="cls-2"><path class="cls-19" d="M442.65,579.78h0a3.42,3.42,0,0,1,3.46-3.37,3.48,3.48,0,0,1,2.44,1,3.32,3.32,0,0,1,1,2.38,3.46,3.46,0,0,1-6.92,0Z" transform="translate(-131.22 -88.53)"/></g><g class="cls-2"><path class="cls-17" d="M442.64,579.77h0a3.42,3.42,0,0,1,3.46-3.37,3.47,3.47,0,0,1,2.44,1,3.35,3.35,0,0,1,1,2.39,3.46,3.46,0,0,1-6.92,0Z" transform="translate(-131.22 -88.53)"/></g></svg>